<?xml version="1.0" encoding="UTF-8" standalone="no"?>
<!-- Created with Inkscape (http://www.inkscape.org/) -->

<svg
   xmlns:dc="http://purl.org/dc/elements/1.1/"
   xmlns:cc="http://creativecommons.org/ns#"
   xmlns:rdf="http://www.w3.org/1999/02/22-rdf-syntax-ns#"
   xmlns:svg="http://www.w3.org/2000/svg"
   xmlns="http://www.w3.org/2000/svg"
   xmlns:sodipodi="http://sodipodi.sourceforge.net/DTD/sodipodi-0.dtd"
   xmlns:inkscape="http://www.inkscape.org/namespaces/inkscape"
   width="210mm"
   height="297mm"
   viewBox="0 0 210 297"
   version="1.1"
   id="svg8">
  <defs
     id="defs2" />
  <sodipodi:namedview
     id="base"
     pagecolor="#ffffff"
     bordercolor="#666666"
     borderopacity="1.0"
     inkscape:pageopacity="0.0"
     inkscape:pageshadow="2"
     inkscape:zoom="0.35"
     inkscape:cx="400"
     inkscape:cy="560"
     inkscape:document-units="mm"
     inkscape:current-layer="layer1"
     showgrid="false" />
  <metadata
     id="metadata5">
    <rdf:RDF>
      <cc:Work
         rdf:about="">
        <dc:format>image/svg+xml</dc:format>
        <dc:type
           rdf:resource="http://purl.org/dc/dcmitype/StillImage" />
      </cc:Work>
    </rdf:RDF>
  </metadata>
  <g
     inkscape:label="Layer 1"
     inkscape:groupmode="layer"
     id="layer1"
     style="display:inline">
    <ellipse
       style="opacity:0.95999995;fill:none;fill-opacity:1;stroke:#000000;stroke-width:0.26499999;stroke-linejoin:round;stroke-miterlimit:4;stroke-dasharray:none;stroke-opacity:1"
       id="path10"
       cx="102.43154"
       cy="91.380951"
       rx="68.413696"
       ry="68.791664" />
    <path
       style="opacity:0.95999995;fill:#666666;fill-opacity:1;stroke:#000000;stroke-width:2.86164212;stroke-linejoin:round;stroke-miterlimit:4;stroke-dasharray:none;stroke-opacity:1"
       d="m 353.75417,601.34566 c -96.48654,-15.29226 -170.07892,-73.57895 -205.81,-163.0058 -22.58364,-56.52177 -22.1808,-130.00308 1.03282,-188.3916 29.6831,-74.66104 89.8091,-128.82364 170.21776,-153.335276 22.43285,-6.838392 29.63121,-7.648688 67.94811,-7.648688 38.31688,0 45.51525,0.810296 67.94811,7.648688 96.667,29.467806 164.20503,102.593666 183.62457,198.816976 5.88446,29.15735 4.36372,89.17015 -2.93817,115.94687 -7.08208,25.97074 -30.54468,72.09403 -48.06291,94.48308 -34.5342,44.1362 -85.17452,76.69523 -139.66335,89.79612 -27.90814,6.71003 -71.3286,9.32991 -94.29694,5.68963 z"
       id="path3717"
       inkscape:connector-curvature="0"
       transform="scale(0.26458333)" />
    <path
       style="opacity:0.95999995;fill:#999999;fill-opacity:1;stroke:#000000;stroke-width:2.86164212;stroke-linejoin:round;stroke-miterlimit:4;stroke-dasharray:none;stroke-opacity:1"
       d="M 358.57143,599.33751 C 268.56702,586.91403 193.42191,531.30969 155.94103,449.39923 139.57608,413.63534 135.75341,393.90334 135.8442,345.66254 c 0.0986,-52.38534 4.1468,-70.38199 25.70769,-114.28571 29.38257,-59.83076 77.235,-102.29746 143.92614,-127.72741 L 330,94.29896 h 57.14286 57.14285 l 24.49472,9.3406 c 40.93351,15.60921 66.59674,32.41945 98.5326,64.54196 26.24271,26.39611 30.13034,31.7663 44.71468,61.76674 23.22463,47.77378 26.33655,61.26769 26.35626,114.28571 0.009,25.5297 -1.51157,50.94109 -3.59148,60 -4.48489,19.5338 -27.43723,68.0346 -42.76726,90.37189 -18.79709,27.38908 -51.51277,56.64851 -83.51343,74.69068 -39.39774,22.21266 -107.62404,35.88197 -149.94037,30.04097 z"
       id="path3719"
       inkscape:connector-curvature="0"
       transform="scale(0.26458333)" />
    <path
       id="rect3729"
       transform="scale(0.26458333)"
       style="opacity:0.95999995;fill:#999999;fill-opacity:1;stroke:#000000;stroke-width:1.00157475;stroke-linejoin:round;stroke-miterlimit:4;stroke-dasharray:none;stroke-opacity:1"
       d="m 141.11719,679.66211 c -0.90617,0.62125 -1.79643,1.08919 -2.66016,1.41601 -0.004,3.56183 -3.51805,7.12744 -10.57031,7.15626 -0.242,9.2e-4 -0.48455,0.003 -0.72656,0.004 -2.83138,0.008 -5.66285,-0.016 -8.49414,-0.0273 -3.22663,0.051 -6.46732,0.31259 -9.67383,-0.20899 -0.4353,-0.0763 -0.65119,-0.10236 -0.74024,-0.11914 -3.05881,1.90403 -2.58604,1.86401 -5.20117,1.8418 -0.62678,0.32983 -1.30024,0.63045 -1.67187,1.19531 -0.0719,0.10923 0.1367,0.22444 0.20507,0.33594 -0.66865,0.78527 -1.17474,1.74473 -2.005855,2.35547 -1.6798,1.23439 -3.724879,1.89708 -5.445313,3.07422 -0.909988,0.39685 -1.894599,0.65378 -2.730468,1.18945 -0.139314,0.0892 0.414611,0.14727 0.386718,0.31055 -0.06973,0.40773 -0.442865,0.70186 -0.623046,1.07422 -0.340082,0.7028 -1.556403,3.91312 -1.722657,4.16601 -1.187981,1.80696 -2.66679,3.40478 -4,5.10742 -2.751276,3.00907 -6.587804,4.79924 -9.386718,7.7461 -1.930738,2.03278 -0.399758,1.37155 -2.177735,3.42382 -1.145234,1.32201 -2.454609,2.49379 -3.68164,3.74024 -0.727541,0.76558 -1.410046,1.5759 -2.183594,2.29492 -5.308071,4.93402 -2.401126,1.57899 -6.22461,5.85938 -8.160388,9.13553 1.828584,-2.20497 -3.636718,4.85742 -0.864771,1.11749 -1.878064,2.1135 -2.816406,3.16992 -2.237454,2.49385 -4.272377,5.26924 -6.806641,7.48242 -1.078708,0.94205 -2.362304,1.62662 -3.462891,2.54297 -0.551319,0.45906 -0.983063,1.04584 -1.474609,1.56836 -1.463724,1.01896 -2.926901,2.03768 -4.390625,3.05664 -1.244644,1.15204 -1.792734,2.8047 -2.839844,4.09375 -0.840778,1.03502 -1.90401,1.87812 -2.726562,2.92774 -0.08397,0.1068 0.393312,-0.10135 0.40625,0.0332 0.04218,0.44186 -0.06798,0.91238 -0.279297,1.30273 -0.848164,1.56681 -1.911404,3.0062 -2.867188,4.50977 -0.697403,0.98876 -1.490884,1.89399 -2.322265,2.76562 v 98.32618 H 725.71484 v -77.05665 c -0.30161,-1.31306 -0.50151,-2.74089 -0.54687,-4.3164 -0.0189,-0.63855 -0.0373,-1.27747 -0.0547,-1.91602 0.0884,-2.02007 0.13223,-2.87866 0.22852,-3.9082 -0.16387,-0.13257 -0.33576,-0.25549 -0.4961,-0.39258 -1.15373,-0.98641 -2.65938,-6.09536 -3.07226,-8.35547 -3.1639,-3.83179 -7.85614,-10.13157 -6.03321,-12.21679 2.13879,3.7132 0.23001,0.0807 -1.07812,-2.67383 -0.79237,-0.95536 -1.59187,-1.90372 -2.37891,-2.86328 -0.28006,-1.9375 0.0936,0.18012 -2,-3.98828 -0.78053,-1.55421 -1.54249,-3.19598 -2.33593,-4.82032 -0.50478,-0.22785 -0.90645,-0.64147 -1.35938,-0.96094 -0.57544,-0.70888 -1.15787,-1.41242 -1.72656,-2.12695 -1.15889,-1.30583 -1.03859,-1.5803 -1.64063,-4.99414 -0.042,-0.23824 -0.0478,-0.35714 -0.0605,-0.50195 -0.76409,-0.70378 -1.32458,-1.32035 -2.42383,-2.3086 -0.2495,-0.56104 -0.57401,-1.09944 -0.84375,-1.65429 -0.78764,-0.75174 -1.70335,-1.67976 -1.61719,-2.02539 0.0233,-0.0931 0.10661,-0.0553 0.20508,0.0156 -0.79184,-0.58223 -1.43616,-1.08356 -2.02149,-1.65234 -0.94973,-0.33521 -1.29278,-1.03916 -3.54492,-4.06446 l -0.004,-0.004 c -0.36764,-0.33172 -0.65202,-0.68663 -0.98047,-1.29492 -0.18614,-0.24361 -0.31017,-0.4161 -0.51758,-0.6836 -0.0391,-0.12207 -0.0638,-0.20501 -0.10156,-0.32226 -0.20089,-0.23532 -0.37769,-0.47883 -0.41993,-0.77539 -0.68778,-0.4723 -1.37692,-0.94346 -1.9707,-1.52539 -0.49523,-0.48537 -2.04077,-3.21863 -2.33984,-3.83594 -0.0181,-0.0373 -0.0214,-0.0817 -0.0352,-0.1211 -0.0321,-0.0178 -0.0593,-0.0307 -0.0918,-0.0488 -1.42541,-0.79703 -2.4215,-2.20931 -3.4707,-3.46094 -0.42066,-0.50181 2.05663,1.61927 1.56446,1.1875 -3.01316,-2.64263 -2.85835,-2.24829 -3.36915,-2.88672 -1.37312,-0.94865 -2.69248,-1.97322 -3.98437,-3.05469 -1.15711,-1.37596 -2.6996,-2.29805 -4.16602,-3.30468 -1.21111,-0.25821 -2.39456,-0.65708 -3.52343,-1.16211 5.80788,0.50193 -3.10731,-0.47319 -4.6875,-1.50196 -1.64881,0.11394 -3.2912,0.0348 -4.86914,-0.625 -0.56999,-0.23849 -1.34488,-0.26869 -1.67774,-0.78906 -0.24983,-0.39054 0.90614,0.19546 1.35938,0.29297 -1.68163,-0.69808 -3.59782,-0.99072 -5.04493,-2.0957 -0.25839,-0.19732 -0.48312,-0.42594 -0.69336,-0.66993 -0.26663,-0.0386 -0.53095,-0.0916 -0.78906,-0.17773 -1.66291,-0.55475 -3.10597,-1.66325 -4.46484,-2.7793 -3.00377,0.26507 -2.75958,-1.10916 -6.68164,-4.5 -0.0886,-0.0249 -0.15644,-0.0362 -0.27149,-0.0781 0.12719,0.14006 0.25539,0.28069 0.35547,0.44336 0.13262,0.2155 -0.10977,0.20074 -0.44922,0.0664 0.19478,0.23325 0.39868,0.45874 0.58204,0.70118 0.82427,1.08991 -0.0458,0.1727 -0.9043,-0.85157 -0.41391,-0.21838 -0.83937,-0.54478 -0.9082,-0.83203 -6.60261,-1.83348 3.95355,0.98739 -3.93165,-1.10351 -4.37307,-1.1596 -7.35327,-3.35871 -8.9414,-5.71094 -1.41544,-9.9e-4 -2.83092,-0.002 -4.2461,-0.002 -4.82476,0.0331 -8.47766,0.60284 -12.40429,-3.35352 -1.31325,0.28084 -0.92437,0.33036 -2.47656,-0.13672 -0.3006,-0.27306 -0.61586,-0.53278 -0.92774,-0.79492 z m 469.71875,0.93164 c 0.0119,-0.003 0.0366,-0.007 0.0488,-0.01 -0.1306,-0.11187 -0.25966,-0.22519 -0.39258,-0.33398 0.11507,0.12329 0.22918,0.22831 0.34375,0.34375 z m 0.0488,-0.01 c 0.48165,0.4126 0.95667,0.83332 1.47656,1.19532 0.38842,0.27061 1.75186,0.68445 1.35547,0.42578 -0.84945,-0.55437 -1.69742,-1.11367 -2.54492,-1.67383 -0.0826,0.0165 -0.21537,0.0375 -0.28711,0.0527 z m 0.28711,-0.0527 c 0.32486,-0.0649 0.5917,-0.12496 1.1289,-0.20703 1.17431,-0.17935 1.98854,-0.40427 2.54883,-0.66211 h -5.03125 c 0.45033,0.29112 0.90604,0.57339 1.35352,0.86914 z m 30.0957,11.06445 c 0.11121,0.0587 0.22098,0.11031 0.32226,0.15039 -0.21842,-0.26156 -0.42844,-0.52957 -0.65429,-0.78515 -0.0868,-0.0324 -0.18788,-0.0722 -0.25977,-0.0957 0.18614,0.23934 0.38023,0.47804 0.5918,0.73047 z m -531.55469,-4.59375 c -0.49335,0.29184 -0.97227,0.57607 -1.34766,0.8086 0.17522,-0.0456 0.459,-0.12621 0.79297,-0.36133 0.19438,-0.13657 0.37661,-0.28954 0.55469,-0.44727 z m 530.36719,2.87305 c -0.004,6.7e-4 -5.9e-4,0.01 -0.004,0.0117 0.20366,0.16281 0.40863,0.32532 0.61914,0.48242 0.0414,-10e-4 0.089,0.009 0.13477,0.0156 -0.1007,-0.0801 -0.18386,-0.15238 -0.28906,-0.23438 -0.26065,-0.20316 -0.40599,-0.2839 -0.46094,-0.27539 z m 0,0.11523 c 0.0421,0.10668 0.17999,0.30698 0.33789,0.52539 0.019,-0.0264 0.032,-0.0599 0.0566,-0.0781 -0.13204,-0.14844 -0.26363,-0.29791 -0.39453,-0.44727 z m 60.375,43.72461 c 0.0391,0.0696 0.087,0.17233 0.12109,0.22461 0.0567,0.0865 0.34254,0.22561 0.27149,0.15039 -0.0139,-0.0148 -0.29104,-0.28154 -0.39258,-0.375 z m 3.64258,4.23243 c 0.006,0.009 0.0134,0.018 0.0195,0.0273 -0.003,-0.006 -0.007,-0.0131 -0.01,-0.0195 -0.003,-0.002 -0.007,-0.005 -0.01,-0.008 z m 11.06054,20.0664 c 0.23235,0.43268 0.45612,0.83859 0.62305,1.09571 0.13946,0.21456 0.7785,0.65439 0.62305,0.45117 -0.40217,-0.52577 -0.82733,-1.03426 -1.2461,-1.54688 z m 7.86133,15.74805 c 0.12705,0.25618 0.26151,0.50866 0.41211,0.75195 0.18633,0.30123 0.54405,0.45307 0.81641,0.67969 -0.17826,-0.20662 -0.78378,-0.91685 -1.22852,-1.43164 z" />
    <ellipse
       style="opacity:0.95999995;fill:#999999;fill-opacity:1;stroke:#000000;stroke-width:0.26499999;stroke-linejoin:round;stroke-miterlimit:4;stroke-dasharray:none;stroke-opacity:1"
       id="path3733"
       ry="16.338982"
       rx="53.294643"
       cy="174.15775"
       cx="98.651787" />
    <ellipse
       style="opacity:0.95999995;fill:#999999;fill-opacity:1;stroke:#000000;stroke-width:0.26499999;stroke-linejoin:round;stroke-miterlimit:4;stroke-dasharray:none;stroke-opacity:1"
       id="path3735"
       cx="149.3006"
       cy="176.4256"
       rx="4.1577382"
       ry="0.37797621" />
    <path
       id="rect3854"
       transform="scale(0.26458333)"
       style="opacity:0.95999995;fill:#999999;fill-opacity:1;stroke:#000000;stroke-width:1.00157475;stroke-linejoin:round;stroke-miterlimit:4;stroke-dasharray:none;stroke-opacity:1"
       d="m 145.17773,676.0332 c -0.46927,0.46214 -0.92608,0.9085 -1.55468,1.53711 -1.76392,1.76391 -3.52815,2.89172 -5.1875,3.51563 -0.006,3.55859 -3.5005,7.11965 -10.54883,7.14844 -0.242,9.2e-4 -0.48455,0.003 -0.72656,0.004 -2.83138,0.008 -5.66285,-0.016 -8.49414,-0.0273 -3.22663,0.051 -6.46732,0.31259 -9.67383,-0.20899 -0.4353,-0.0763 -0.65119,-0.10236 -0.74024,-0.11914 -3.25541,2.02641 -2.38367,1.8549 -5.63476,1.8418 -1.79989,-0.0858 -1.65649,-0.0586 -3.375002,-0.2207 -0.842264,-0.0796 -1.0361,-0.16072 -0.835938,-0.33399 -1.431528,0.52585 -2.857253,1.06693 -4.298828,1.56446 -0.483791,0.16699 1.747885,-1.05629 1.283203,-0.8418 -1.053626,0.48627 -1.974643,1.25645 -3.070313,1.63867 -3.721381,1.29827 -4.941306,0.99023 -8.748046,0.99023 -1.329945,0 -2.53543,-0.12653 -3.615235,-0.35546 -1.25722,1.07963 -3.612518,2.817 -4.675781,3.60937 0.348246,-0.16139 1.014705,-0.86709 1.044922,-0.48437 0.148155,1.87619 -4.123401,5.04589 -6.822266,6.83593 0.101126,-0.0354 0.197412,-0.0628 0.277344,-0.0684 0.374362,-0.0264 -0.350066,0.66234 -0.525391,0.99414 0.170684,-0.12623 0.574713,-0.57961 0.511719,-0.37695 -1.642583,5.28363 -4.578564,10.48863 -9.947266,12.70899 -0.553222,0.2288 -1.125655,0.40206 -1.703124,0.56054 -0.05654,0.10236 -0.144402,0.22861 -0.177735,0.3125 -0.08126,0.20447 -0.02614,0.4385 -0.03906,0.65821 -1.146909,1.7568 -2.292558,3.51468 -3.439453,5.27148 -1.068173,0.7915 -2.136907,1.58153 -3.205079,2.37305 0.161039,-0.10573 0.301148,-0.15757 0.363282,-0.004 0.183911,0.45725 -0.452833,0.89317 -0.804688,1.23828 -0.717302,0.70356 -1.489394,1.34807 -2.261719,1.99219 -1.489565,3.7928 -0.714266,2.43155 -2.71289,4.17383 -2.180036,8.16225 -0.602249,5.8585 -6.244141,8.84375 -0.985837,5.49087 -3.57487,8.64724 -6.523437,12.10937 -0.568144,1.59095 -1.146866,3.18238 -2.085938,4.57227 -3.783102,5.59924 -1.127329,1.59699 -2.701172,3.34765 v 107.4004 H 725.71484 v -77.05665 c -0.30161,-1.31306 -0.50151,-2.74089 -0.54687,-4.3164 -0.0189,-0.63855 -0.0373,-1.27747 -0.0547,-1.91602 0.0884,-2.02007 0.13223,-2.87866 0.22852,-3.9082 -0.16387,-0.13257 -0.33576,-0.25549 -0.4961,-0.39258 -1.15373,-0.98641 -2.65938,-6.09536 -3.07226,-8.35547 -3.1639,-3.83179 -7.85614,-10.13157 -6.03321,-12.21679 2.13879,3.7132 0.23001,0.0807 -1.07812,-2.67383 -0.79237,-0.95536 -1.59187,-1.90372 -2.37891,-2.86328 -0.28006,-1.9375 0.0936,0.18012 -2,-3.98828 -1.36021,-2.70845 -2.65301,-5.69146 -4.18164,-8.36329 -0.11187,-1.78518 0.0766,0.25007 -1.80078,-3.82226 -1.21032,-2.62515 -2.7221,-5.65735 -4.5332,-8.06055 -5.2853,-1.37817 -2.652,0.52574 -8.35547,-6.83008 -0.63132,-1.97015 -1.07711,-3.27718 -1.44922,-5.06054 -0.88979,-0.26733 -2.02297,-0.73707 -3.50977,-1.56836 -1.42541,-0.79703 -2.4215,-2.20931 -3.4707,-3.46094 -0.42066,-0.50181 2.05663,1.61927 1.56446,1.1875 -4.69834,-4.12059 -1.51222,-0.56311 -5.54297,-5.67383 0.29707,0.15118 1.08353,0.72487 0.89062,0.45313 -1.00311,-1.41334 -2.5365,-2.52203 -4.13086,-3.70704 -2.16234,-0.0384 -4.29215,-0.6002 -6.25976,-1.48046 5.80788,0.50193 -3.10731,-0.47319 -4.6875,-1.50196 -1.64881,0.11394 -3.2912,0.0348 -4.86914,-0.625 -0.56999,-0.23849 -1.34488,-0.26869 -1.67774,-0.78906 -0.24983,-0.39054 0.90614,0.19546 1.35938,0.29297 -1.68163,-0.69808 -3.59782,-0.99072 -5.04493,-2.0957 -0.25839,-0.19732 -0.48312,-0.42594 -0.69336,-0.66993 -0.26663,-0.0386 -0.53095,-0.0916 -0.78906,-0.17773 -1.66291,-0.55475 -3.10597,-1.66325 -4.46484,-2.7793 -3.00377,0.26507 -2.75958,-1.10916 -6.68164,-4.5 -0.0886,-0.0249 -0.15644,-0.0362 -0.27149,-0.0781 0.12719,0.14006 0.25539,0.28069 0.35547,0.44336 0.13262,0.2155 -0.10977,0.20074 -0.44922,0.0664 0.19478,0.23325 0.39868,0.45874 0.58204,0.70118 0.82427,1.08991 -0.0458,0.1727 -0.9043,-0.85157 -0.41391,-0.21838 -0.83937,-0.54478 -0.9082,-0.83203 -6.60261,-1.83348 3.95355,0.98739 -3.93165,-1.10351 -4.37307,-1.1596 -7.35327,-3.35871 -8.9414,-5.71094 -1.41544,-9.9e-4 -2.83092,-0.002 -4.2461,-0.002 -4.82476,0.0331 -8.47766,0.60284 -12.40429,-3.35352 -1.31325,0.28084 -0.92437,0.33036 -2.47656,-0.13672 -0.81865,-0.74366 -1.73077,-1.39662 -2.45508,-2.23242 -0.27727,-0.31975 -0.86901,-1.36192 -0.49219,-1.16992 1.99839,1.01812 3.88576,2.23798 5.75977,3.47656 0.32486,-0.0649 0.5917,-0.12496 1.1289,-0.20703 5.18732,-0.79225 3.82565,-2.41847 0.78125,-4.29102 z m 465.99415,4.49805 c -0.0826,0.0165 -0.21537,0.0375 -0.28711,0.0527 0.48165,0.4126 0.95667,0.83332 1.47656,1.19532 0.38842,0.27061 1.75186,0.68445 1.35547,0.42578 -0.84945,-0.55437 -1.69742,-1.11367 -2.54492,-1.67383 z m -0.28711,0.0527 c -0.1306,-0.11187 -0.25966,-0.22519 -0.39258,-0.33398 0.11507,0.12329 0.22918,0.22831 0.34375,0.34375 0.0119,-0.003 0.0366,-0.007 0.0488,-0.01 z m 30.38281,11.01172 c 0.11121,0.0587 0.22098,0.11031 0.32226,0.15039 -0.21842,-0.26156 -0.42844,-0.52957 -0.65429,-0.78515 -0.0868,-0.0324 -0.18788,-0.0722 -0.25977,-0.0957 0.18614,0.23934 0.38023,0.47804 0.5918,0.73047 z m -531.55469,-4.59375 c -0.49335,0.29184 -0.97227,0.57607 -1.34766,0.8086 0.17522,-0.0456 0.459,-0.12621 0.79297,-0.36133 0.19438,-0.13657 0.37661,-0.28954 0.55469,-0.44727 z m 530.36719,2.87305 c -0.004,6.7e-4 -5.9e-4,0.01 -0.004,0.0117 0.20366,0.16281 0.40863,0.32532 0.61914,0.48242 0.0414,-10e-4 0.089,0.009 0.13477,0.0156 -0.1007,-0.0801 -0.18386,-0.15238 -0.28906,-0.23438 -0.26065,-0.20316 -0.40599,-0.2839 -0.46094,-0.27539 z m 0,0.11523 c 0.0421,0.10668 0.17999,0.30698 0.33789,0.52539 0.019,-0.0264 0.032,-0.0599 0.0566,-0.0781 -0.13204,-0.14844 -0.26363,-0.29791 -0.39453,-0.44727 z m 52.92773,28.44336 c -0.12084,0.0247 -0.31989,0.13703 -0.66211,0.21289 0.3425,0.26103 0.58447,0.43248 1.00586,0.76563 -0.13944,-0.84308 -0.1604,-1.01593 -0.34375,-0.97852 z m -645.201169,9.98243 c -0.441058,0.37424 -0.878066,0.75385 -1.296875,1.15234 -0.24858,0.2366 0.687991,-0.24201 0.886718,-0.52148 0.145353,-0.20457 0.276954,-0.41852 0.410157,-0.63086 z m 654.814449,2.72656 c 0.12741,0.10319 0.26032,0.19732 0.38868,0.29883 0.70291,0.0449 1.61029,0.38787 1.19531,0.24023 -0.57968,-0.20607 -1.08795,-0.37558 -1.58399,-0.53906 z m -657.642574,1.63086 c -0.736476,0.6993 -1.636414,1.59542 -2.984375,3.08203 -0.448351,0.49444 1.250547,-0.56637 1.699218,-1.06055 0.777828,-1.17633 1.082993,-1.68151 1.285157,-2.02148 z m -5.527344,8.10937 c -1.225816,0.65399 -2.758528,1.53949 -4.757813,2.84766 -0.28402,0.18595 0.687548,0.0145 1.017579,-0.0644 1.735671,-0.41691 2.76255,-1.39532 3.740234,-2.78321 z m -7.015625,12.78516 c -0.408805,0.48085 -0.802262,0.93787 -1.21875,1.44531 -0.219421,0.26721 0.546816,-0.42503 0.820312,-0.63672 0.09235,-0.17804 0.263896,-0.53574 0.398438,-0.80859 z m 682.722653,4.3457 c 0.23235,0.43268 0.45612,0.83859 0.62305,1.09571 0.13946,0.21456 0.7785,0.65439 0.62305,0.45117 -0.40217,-0.52577 -0.82733,-1.03426 -1.2461,-1.54688 z m 7.86133,15.74805 c 0.12705,0.25618 0.26151,0.50866 0.41211,0.75195 0.18633,0.30123 0.54405,0.45307 0.81641,0.67969 -0.17826,-0.20662 -0.78378,-0.91685 -1.22852,-1.43164 z" />
  </g>
</svg>
